<svg xmlns="http://www.w3.org/2000/svg" viewBox="0 0 96 96" width="96" height="96" fill="none"><g stroke="#2D5BFF" stroke-width="5" stroke-linecap="round"><line x1="8" y1="34" x2="18" y2="34"></line><line x1="78" y1="34" x2="88" y2="34"></line><line x1="8" y1="48" x2="18" y2="48"></line><line x1="78" y1="48" x2="88" y2="48"></line><line x1="8" y1="62" x2="18" y2="62"></line><line x1="78" y1="62" x2="88" y2="62"></line></g><circle cx="8" cy="34" r="2.6" fill="#2D5BFF"></circle><circle cx="88" cy="34" r="2.6" fill="#2D5BFF"></circle><circle cx="8" cy="48" r="2.6" fill="#2D5BFF"></circle><circle cx="88" cy="48" r="2.6" fill="#2D5BFF"></circle><circle cx="8" cy="62" r="2.6" fill="#2D5BFF"></circle><circle cx="88" cy="62" r="2.6" fill="#2D5BFF"></circle><rect x="20" y="20" width="56" height="56" rx="15" fill="#181818"></rect><g fill="#FFFFFF"><rect x="28" y="36" width="6" height="24" rx="1.5"></rect><rect x="42" y="36" width="6" height="24" rx="1.5"></rect><rect x="28" y="45" width="20" height="6" rx="1.5"></rect></g><g fill="#2D5BFF"><rect x="50" y="36" width="18" height="6" rx="1.5"></rect><rect x="56" y="36" width="6" height="24" rx="1.5"></rect></g></svg>