<svg xmlns="http://www.w3.org/2000/svg" viewBox="0 0 681 170" width="681" height="170" fill="none"><g transform="translate(10,10) scale(1.5625)"><g stroke="#2D5BFF" stroke-width="5" stroke-linecap="round"><line x1="8" y1="34" x2="18" y2="34"></line><line x1="78" y1="34" x2="88" y2="34"></line><line x1="8" y1="48" x2="18" y2="48"></line><line x1="78" y1="48" x2="88" y2="48"></line><line x1="8" y1="62" x2="18" y2="62"></line><line x1="78" y1="62" x2="88" y2="62"></line></g><circle cx="8" cy="34" r="2.6" fill="#2D5BFF"></circle><circle cx="88" cy="34" r="2.6" fill="#2D5BFF"></circle><circle cx="8" cy="48" r="2.6" fill="#2D5BFF"></circle><circle cx="88" cy="48" r="2.6" fill="#2D5BFF"></circle><circle cx="8" cy="62" r="2.6" fill="#2D5BFF"></circle><circle cx="88" cy="62" r="2.6" fill="#2D5BFF"></circle><rect x="20" y="20" width="56" height="56" rx="15" fill="#181818"></rect><g fill="#FFFFFF"><rect x="28" y="36" width="6" height="24" rx="1.5"></rect><rect x="42" y="36" width="6" height="24" rx="1.5"></rect><rect x="28" y="45" width="20" height="6" rx="1.5"></rect></g><g fill="#2D5BFF"><rect x="50" y="36" width="18" height="6" rx="1.5"></rect><rect x="56" y="36" width="6" height="24" rx="1.5"></rect></g></g><g transform="translate(190.0,39.0) scale(0.7667)"><g transform="translate(0.0,0)" fill="#181818"><rect x="0.0" y="0.0" width="20.0" height="120.0" rx="2"></rect><rect x="70.0" y="0.0" width="20.0" height="120.0" rx="2"></rect><rect x="0.0" y="50.0" width="90.0" height="20.0" rx="2"></rect></g><g transform="translate(101.0,0)" fill="#181818"><rect x="0.0" y="0.0" width="86.0" height="20.0" rx="2"></rect><rect x="33.0" y="0.0" width="20.0" height="120.0" rx="2"></rect></g><g transform="translate(229.0,0)" fill="#2D5BFF"><rect x="0.0" y="0.0" width="86.0" height="20.0" rx="2"></rect><rect x="33.0" y="0.0" width="20.0" height="120.0" rx="2"></rect></g><g transform="translate(326.0,0)" fill="#2D5BFF"><rect x="0.0" y="0.0" width="20.0" height="120.0" rx="2"></rect><rect x="0.0" y="0.0" width="80.0" height="20.0" rx="2"></rect><rect x="0.0" y="50.0" width="67.2" height="20.0" rx="2"></rect><rect x="0.0" y="100.0" width="80.0" height="20.0" rx="2"></rect></g><g transform="translate(417.0,0)" fill="#2D5BFF"><path d="M83.21 26.54 A42 50 0 1 0 83.21 93.46" fill="none" stroke="#2D5BFF" stroke-width="20" stroke-linecap="round"></path></g><g transform="translate(532.0,0)" fill="#2D5BFF"><rect x="0.0" y="0.0" width="20.0" height="120.0" rx="2"></rect><rect x="70.0" y="0.0" width="20.0" height="120.0" rx="2"></rect><rect x="0.0" y="50.0" width="90.0" height="20.0" rx="2"></rect></g></g></svg>